<?xml version="1.0" encoding="UTF-8"?><svg id="b" xmlns="http://www.w3.org/2000/svg" viewBox="0 0 2922.67 2922.67"><defs><style>.d{fill:none;}.d,.e,.f{stroke-width:0px;}.e,.f{fill:#fff;}.f{fill-rule:evenodd;}</style></defs><g id="c"><path class="f" d="m1236.87,275.12C9.62,963.22-36.62,2277.49,1252.05,2903.63c-1626.04-156.14-1340.9-2266.45-15.18-2628.51"/><path class="f" d="m126.48,2904.38c13.69-75.29,509.28-1099.88,982.15-1248.65,0,0,367.51-97.9,606.6,289.96-303.59-96.99-426.73-170.93-603.3-88.99-282.25,130.98-571.8,590.33-985.45,1047.68"/><path class="f" d="m2011.99,157.55c-302.28-436.9-741.96,284.32-85.06,388.84-346.31-212.18-150.26-545.25,85.06-388.84"/><path class="f" d="m1291.69,553.96c-1159.93,391.62-686.14,1458.89,20.5,850.65-769.65,267.56-713.57-450.51-20.5-850.65"/><path class="f" d="m943.86,1149.42s-12.95-63.06,120.72-211.92c121.06-134.81,301.61-266.34,464.9-313.06,674.42-192.96,663.53,739.79,1204.46,525.74-165.43,353.21-638.27-114.05-788.41-252.17-238.9-204.58-721.52-7.06-1001.68,251.41"/><path class="f" d="m1477.93,1059.25c-122.12,49.07-200.79,139.41-175.73,201.78,25.06,62.37,144.37,73.16,266.49,24.09,122.12-49.07,200.79-139.41,175.73-201.78-25.06-62.37-144.37-73.16-266.49-24.09"/><path class="f" d="m2648.14,711.2c31.88,0,57.72,25.84,57.72,57.72s-25.84,57.72-57.72,57.72-57.72-25.84-57.72-57.72,25.84-57.72,57.72-57.72"/><path class="e" d="m2402.98,2691.36c11.34,0,17.63-7.74,17.25-15.24-.29-4.95-3.7-8.72-9.76-12.43-4.19-2.79-6.08-4.63-6.18-7.03-.24-4.29,3.3-6.22,8.19-6.22,2.77,0,6.34,1.18,9.25,3.06l.88-7.59c-3.33-1.74-7.26-2.6-10.45-2.6-10.08,0-15.6,6.32-15.14,14.33.24,4.34,3.33,8.06,8.54,11.32,4.7,3.11,7.2,5.18,7.3,8.29.14,3.68-3.73,7.08-10.18,7.08-3.55,0-7.92-1.47-11.06-4.06l-.85,7.32c2.82,2.08,7.55,3.77,12.19,3.77m-28.79-1.43h7.49l13.31-74.87h-7.49l-13.31,74.87Zm-29.17-5.03c-7.33,0-7.33-7.82-7.33-11.12,0-9.48,4.78-23.97,15.65-23.97,3.28,0,5.01.27,8.72,2.03l-4.27,24.25c-3.6,5.39-8.69,8.82-12.77,8.82Zm9.73-41.58c-14.85,0-24.34,15.88-24.34,31.58,0,4.06.42,16.53,12.5,16.53,4.78,0,9.44-2.61,13.42-7.14l-.05.34.14,5.24h6.42l7.6-42.8c-7.22-2.98-11.2-3.74-15.7-3.74Zm-40.5.08c-5.25,0-11.55,3.24-16.03,7.95l.29-6.45h-6.5l-8.02,45.03h7.55l5.55-31.26c3.62-5.16,9.41-8.69,13.92-8.69,6.08,0,6.78,4.53,5.38,12.46l-4.86,27.49h7.49l5.01-28.15c2.43-13.64-1.87-18.38-9.78-18.38Zm-56.9,41.4c-5.87,0-8.54-3.87-8.86-10.43-.48-8.92,4.59-24.49,15.66-24.49,5.87,0,8.45,3.97,8.72,10.48.48,8.87-4.22,24.44-15.52,24.44Zm-.94,6.67c16.8,0,24.56-19.04,23.86-32.53-.51-9.64-5.84-15.64-15.31-15.64-16.7,0-24.47,19.09-23.76,32.58.51,9.72,5.98,15.59,15.22,15.59Zm-34.5-1.55h7.5l8-45.08h-7.49l-8.02,45.08Zm13.58-55.14c3.1,0,5.78-2.18,6.29-5.22.51-3.06-1.36-5.32-4.45-5.32s-5.81,2.26-6.34,5.32c-.56,3.05,1.41,5.22,4.5,5.22Zm-36.84,56.57c11.34,0,17.63-7.74,17.25-15.24-.29-4.95-3.7-8.72-9.76-12.43-4.19-2.79-6.08-4.63-6.18-7.03-.24-4.29,3.3-6.22,8.19-6.22,2.77,0,6.34,1.18,9.25,3.06l.88-7.59c-3.33-1.74-7.26-2.6-10.45-2.6-10.08,0-15.6,6.32-15.14,14.33.24,4.34,3.33,8.06,8.54,11.32,4.7,3.11,7.2,5.18,7.3,8.29.14,3.68-3.73,7.08-10.18,7.08-3.55,0-7.92-1.47-11.06-4.06l-.85,7.32c2.82,2.08,7.55,3.77,12.19,3.77Zm-32.96,0c11.34,0,17.63-7.74,17.25-15.24-.29-4.95-3.7-8.72-9.76-12.43-4.19-2.79-6.08-4.63-6.18-7.03-.24-4.29,3.3-6.22,8.19-6.22,2.77,0,6.34,1.18,9.25,3.06l.88-7.59c-3.33-1.74-7.26-2.6-10.45-2.6-10.08,0-15.6,6.32-15.14,14.33.24,4.34,3.33,8.06,8.54,11.32,4.7,3.11,7.2,5.18,7.3,8.29.14,3.68-3.73,7.08-10.18,7.08-3.55,0-7.92-1.47-11.06-4.06l-.85,7.32c2.82,2.08,7.55,3.77,12.19,3.77Zm-26.42-41.87c4.54,0,7.26,1.89,7.44,5.3.34,6.63-5.57,10.12-22.51,11.3,1.74-8.24,6.37-16.61,15.07-16.61Zm13.63,5.16c-.37-6.85-4.5-11.35-13.59-11.35-16.9,0-23.87,19.1-23.19,32.89.53,9.83,5.97,15.28,15.79,15.28,5.89,0,10.94-2.35,14.42-4.08l1.6-7.08c-4.69,2.69-8.72,4.58-14.29,4.58-6.66,0-9.89-3.45-10.22-9.8-.05-.79-.05-1.69,0-2.6,18.56-1.14,30.08-6.01,29.47-17.85Zm-35.33-39.6c-6.59,0-13.11,3.45-15.46,16.46l-2.34,13.33h-7.07l-1.22,6.77h7.07l-10.64,60.17h7.55l10.63-60.17h10.26l1.26-6.77h-10.3l2.35-13.33c1.58-8.85,4.91-9.98,8.43-9.98,2.48,0,4.11.27,6.22,1.23l.75-6.64c-2.21-.63-4.78-1.06-7.5-1.06Zm-54.98,69.75c-5.87,0-8.54-3.87-8.86-10.43-.48-8.92,4.59-24.49,15.66-24.49,5.87,0,8.45,3.97,8.72,10.48.48,8.87-4.22,24.44-15.52,24.44Zm-.94,6.67c16.8,0,24.56-19.04,23.86-32.53-.51-9.64-5.84-15.64-15.31-15.64-16.71,0-24.47,19.09-23.76,32.58.51,9.72,5.98,15.59,15.22,15.59Zm-17.94-48.17c-4.21,0-8.58,3.29-12.22,7.95l.32-6.4h-6.46l-8.02,45.08h7.55l5.47-31.28c2.96-4.27,7.18-8.48,11.63-8.48,1.46,0,3.47.08,5.54.98l.98-6.95c-1.46-.66-2.99-.9-4.78-.9Zm-53.8,8.71l4.78-27.2h7.5c6.18,0,9.84,3.08,10.16,9.01.43,8.67-4.87,18.14-15.75,18.19h-6.7Zm-14.77,37.92h8.02l5.54-30.95h7.46c16.45,0,24.59-13.88,23.89-26.91-.48-9.24-6.69-14.28-16.72-14.28h-15.38l-12.8,72.15Zm-43.72,1.43c11.34,0,17.63-7.74,17.25-15.24-.29-4.95-3.7-8.72-9.76-12.43-4.19-2.79-6.08-4.63-6.18-7.03-.24-4.29,3.3-6.22,8.19-6.22,2.77,0,6.34,1.18,9.25,3.06l.88-7.59c-3.33-1.74-7.26-2.6-10.45-2.6-10.08,0-15.6,6.32-15.14,14.33.24,4.34,3.33,8.06,8.54,11.32,4.7,3.11,7.2,5.18,7.3,8.29.14,3.68-3.73,7.08-10.18,7.08-3.55,0-7.92-1.47-11.06-4.06l-.85,7.32c2.82,2.08,7.55,3.77,12.19,3.77Zm-28.61-1.43h7.5l8-45.08h-7.49l-8.02,45.08Zm13.59-55.14c3.1,0,5.78-2.18,6.29-5.22.51-3.06-1.36-5.32-4.45-5.32s-5.81,2.26-6.34,5.32c-.56,3.05,1.41,5.22,4.5,5.22Zm-29.44,8.61c-5.25,0-11.55,3.24-16.03,7.95l.29-6.45h-6.5l-8.02,45.03h7.55l5.55-31.26c3.62-5.16,9.41-8.69,13.92-8.69,6.08,0,6.78,4.53,5.38,12.46l-4.86,27.49h7.49l5.01-28.15c2.43-13.64-1.87-18.38-9.78-18.38Zm-46.04,0c-5.25,0-11.55,3.24-16.03,7.95l.29-6.45h-6.5l-8.02,45.03h7.55l5.55-31.26c3.62-5.16,9.41-8.69,13.92-8.69,6.08,0,6.78,4.53,5.38,12.46l-4.86,27.49h7.49l5.01-28.15c2.43-13.64-1.87-18.38-9.78-18.38Zm-46.93,6.09c4.54,0,7.26,1.89,7.44,5.3.34,6.63-5.57,10.12-22.51,11.3,1.74-8.24,6.37-16.61,15.07-16.61Zm13.63,5.16c-.37-6.85-4.5-11.35-13.59-11.35-16.9,0-23.87,19.1-23.19,32.89.53,9.83,5.97,15.28,15.79,15.28,5.89,0,10.94-2.35,14.42-4.08l1.6-7.08c-4.69,2.69-8.72,4.58-14.29,4.58-6.66,0-9.89-3.45-10.22-9.8-.05-.79-.05-1.69,0-2.6,18.56-1.14,30.08-6.01,29.47-17.85Zm-59.32,35.28h8.02l11.49-64.83h15.38l1.31-7.32h-38.92l-1.31,7.32h15.52l-11.49,64.83Zm-46.55-40.44c4.54,0,7.26,1.89,7.44,5.3.34,6.63-5.57,10.12-22.51,11.3,1.74-8.24,6.37-16.61,15.07-16.61Zm13.63,5.16c-.37-6.85-4.5-11.35-13.59-11.35-16.9,0-23.87,19.1-23.19,32.89.53,9.83,5.97,15.28,15.79,15.28,5.89,0,10.94-2.35,14.42-4.08l1.6-7.08c-4.69,2.69-8.72,4.58-14.29,4.58-6.66,0-9.89-3.45-10.22-9.8-.05-.79-.05-1.69,0-2.6,18.56-1.14,30.08-6.01,29.47-17.85Zm-56.23,35.28h7.49l13.31-74.87h-7.49l-13.31,74.87Zm-26.63-4.84c-3.04,0-5.44-.79-8.29-1.98l4.5-25.34c3.18-4.06,8.26-7.88,12.05-7.88,5.25,0,7.17,4.16,7.26,11.16.29,10.11-4.93,24.05-15.52,24.05Zm11.25-41.79c-4.86,0-9.89,2.98-13.82,7.37l6.34-35.61h-7.51l-12.9,72.66c4.88,2.11,10.03,3.76,15.99,3.76,14.63,0,23.25-16.64,23.44-31.02.34-10.72-4.22-17.15-11.54-17.15Zm-57.44,41.6c-7.33,0-7.33-7.82-7.33-11.12,0-9.48,4.78-23.97,15.65-23.97,3.28,0,5.01.27,8.72,2.03l-4.27,24.25c-3.6,5.39-8.69,8.82-12.77,8.82Zm9.73-41.58c-14.85,0-24.34,15.88-24.34,31.58,0,4.06.42,16.53,12.5,16.53,4.78,0,9.44-2.61,13.43-7.14l-.05.34.14,5.24h6.42l7.6-42.8c-7.22-2.98-11.2-3.74-15.7-3.74Zm-46.8,46.61h8.02l11.49-64.83h15.38l1.31-7.32h-38.92l-1.31,7.32h15.52l-11.49,64.83Zm-28.77-74.87c-6.59,0-13.1,3.45-15.46,16.46l-2.34,13.33h-7.07l-1.22,6.77h7.07l-10.64,60.17h7.55l10.62-60.17h10.26l1.26-6.77h-10.31l2.35-13.33c1.58-8.85,4.91-9.98,8.43-9.98,2.48,0,4.11.27,6.23,1.23l.75-6.64c-2.21-.63-4.78-1.06-7.5-1.06Zm-54.98,69.75c-5.87,0-8.54-3.87-8.86-10.43-.48-8.92,4.59-24.49,15.67-24.49,5.87,0,8.45,3.97,8.72,10.48.48,8.87-4.22,24.44-15.52,24.44Zm-.94,6.67c16.8,0,24.56-19.04,23.86-32.53-.51-9.64-5.84-15.64-15.31-15.64-16.71,0-24.47,19.09-23.76,32.58.51,9.72,5.98,15.59,15.22,15.59Zm-50.45-48.08c-5.25,0-11.55,3.24-16.03,7.95l.29-6.45h-6.5l-8.02,45.03h7.55l5.55-31.26c3.62-5.16,9.41-8.69,13.92-8.69,6.08,0,6.78,4.53,5.38,12.46l-4.86,27.49h7.49l5.01-28.15c2.43-13.64-1.87-18.38-9.78-18.38Zm-56.9,41.4c-5.87,0-8.54-3.87-8.86-10.43-.48-8.92,4.59-24.49,15.67-24.49,5.87,0,8.45,3.97,8.72,10.48.48,8.87-4.22,24.44-15.52,24.44Zm-.94,6.67c16.8,0,24.56-19.04,23.86-32.53-.51-9.64-5.84-15.64-15.31-15.64-16.71,0-24.47,19.09-23.76,32.58.51,9.72,5.98,15.59,15.22,15.59Zm-34.5-1.55h7.5l8-45.08h-7.49l-8.02,45.08Zm13.59-55.14c3.1,0,5.78-2.18,6.29-5.22.51-3.06-1.36-5.32-4.45-5.32s-5.81,2.26-6.34,5.32c-.56,3.05,1.41,5.22,4.5,5.22Zm-28.32,56.59c3.7,0,6.24-1.27,8.06-2.08l1.73-6.96c-1.41.71-4.21,2.08-7.12,2.08-4.03,0-6.43-2.13-5.06-9.74l4.02-23.05h10.93l1.22-6.77h-10.91l2.53-14.3-9.06,5.95-1.46,8.35h-6.48l-1.26,6.77h6.99l-4.22,23.81c-1.87,10.63,1.46,15.94,10.1,15.94Zm-44.1-6.48c-7.33,0-7.33-7.82-7.33-11.12,0-9.48,4.78-23.97,15.65-23.97,3.28,0,5.01.27,8.72,2.03l-4.27,24.25c-3.6,5.39-8.69,8.82-12.77,8.82Zm9.73-41.58c-14.85,0-24.34,15.88-24.34,31.58,0,4.06.42,16.53,12.5,16.53,4.78,0,9.44-2.61,13.42-7.14l-.05.34.14,5.24h6.42l7.6-42.8c-7.22-2.98-11.2-3.74-15.7-3.74Zm-43.54,46.61h7.5l8-45.08h-7.49l-8.02,45.08Zm13.59-55.14c3.1,0,5.78-2.18,6.29-5.22.51-3.06-1.36-5.32-4.45-5.32s-5.81,2.26-6.34,5.32c-.56,3.05,1.41,5.22,4.5,5.22Zm-33.11,56.69c4.46,0,7.5-1.13,10.74-3.1l1.46-7.21c-3.18,2.6-7.07,3.92-10.32,3.92-6.66,0-9.14-3.6-9.46-10.22-.51-9.61,4.03-25.18,16.35-25.18,3.52,0,5.76,1.18,8.35,3.6l.93-7.03c-2.53-1.72-5.57-2.95-9.52-2.95-16.59,0-24.11,19.44-23.41,32.99.48,9.56,5.84,15.19,14.88,15.19Zm-41.94-6.67c-5.87,0-8.54-3.87-8.86-10.43-.48-8.92,4.59-24.49,15.67-24.49,5.87,0,8.45,3.97,8.72,10.48.48,8.87-4.22,24.44-15.52,24.44Zm-.94,6.67c16.8,0,24.56-19.04,23.86-32.53-.51-9.64-5.84-15.64-15.31-15.64-16.71,0-24.47,19.09-23.76,32.58.51,9.72,5.98,15.59,15.22,15.59Zm-38.85-.11c11.35,0,17.63-7.74,17.25-15.24-.29-4.95-3.7-8.72-9.76-12.43-4.19-2.79-6.08-4.63-6.18-7.03-.24-4.29,3.3-6.22,8.19-6.22,2.77,0,6.34,1.18,9.25,3.06l.88-7.59c-3.33-1.74-7.26-2.6-10.45-2.6-10.08,0-15.6,6.32-15.14,14.33.24,4.34,3.33,8.06,8.55,11.32,4.7,3.11,7.2,5.18,7.3,8.29.14,3.68-3.73,7.08-10.18,7.08-3.55,0-7.92-1.47-11.06-4.06l-.85,7.32c2.82,2.08,7.55,3.77,12.19,3.77Zm-32.96,0c11.34,0,17.63-7.74,17.25-15.24-.29-4.95-3.7-8.72-9.76-12.43-4.19-2.79-6.08-4.63-6.18-7.03-.24-4.29,3.3-6.22,8.19-6.22,2.77,0,6.34,1.18,9.25,3.06l.88-7.59c-3.33-1.74-7.26-2.6-10.45-2.6-10.08,0-15.6,6.32-15.14,14.33.24,4.34,3.33,8.06,8.54,11.32,4.7,3.11,7.2,5.18,7.3,8.29.14,3.68-3.73,7.08-10.18,7.08-3.55,0-7.92-1.47-11.06-4.06l-.85,7.32c2.82,2.08,7.55,3.77,12.19,3.77Zm-46.98-28.91l12.93-26.07,3.71,26.07h-16.64Zm20.53,27.47h7.97l-11.49-74.47-.75.15-.78-.15-38.21,74.47h9.09l10.32-20.8h20.9l2.96,20.8Z"/><path class="e" d="m2766.93,1973.7c-10.95-10.95-26.09-17.73-42.8-17.73s-31.85,6.78-42.8,17.73c-10.95,10.95-17.73,26.09-17.73,42.8s6.78,31.85,17.73,42.8c10.95,10.95,26.09,17.73,42.8,17.73s31.85-6.78,42.8-17.73c10.95-10.95,17.73-26.09,17.73-42.8s-6.77-31.85-17.73-42.8m-42.8-29.26c19.9,0,37.91,8.07,50.95,21.11,13.04,13.04,21.11,31.06,21.11,50.95s-8.07,37.91-21.11,50.95c-13.04,13.04-31.06,21.11-50.95,21.11s-37.91-8.07-50.95-21.11c-13.04-13.04-21.11-31.06-21.11-50.95s8.07-37.91,21.11-50.95c13.04-13.04,31.06-21.11,50.95-21.11Z"/><path class="e" d="m2707.39,2011.3h10.12c6.56,0,10.64-.28,12.28-.84,1.62-.55,2.92-1.51,3.83-2.87.93-1.36,1.39-3.06,1.39-5.09,0-2.29-.61-4.11-1.83-5.53-1.21-1.4-2.93-2.29-5.14-2.65-1.12-.16-4.44-.24-9.98-.24h-10.67v17.21Zm-13.71,39.06v-67.71h28.8c7.23,0,12.5.61,15.78,1.83,3.29,1.21,5.91,3.37,7.88,6.48,1.97,3.12,2.96,6.67,2.96,10.67,0,5.09-1.48,9.28-4.46,12.59-2.98,3.31-7.42,5.39-13.35,6.26,2.95,1.72,5.37,3.61,7.28,5.67,1.92,2.07,4.51,5.74,7.75,11l8.26,13.21h-16.34l-9.8-14.78c-3.51-5.25-5.93-8.56-7.23-9.93-1.29-1.36-2.66-2.3-4.11-2.81-1.47-.5-3.77-.76-6.92-.76h-2.77v28.28h-13.71Z"/><path class="f" d="m1348.48,2359.81l-20.25-181.43-95.17,181.43h115.43Zm-210.61,178.96h-118.72l266.21-453.97h124.3s67.87,454.03,67.87,454.03h-109.07l-11.07-99.17h-166.22l-53.3,99.1Z"/><polygon class="f" points="1726.75 2538.18 1617.69 2538.18 1696.65 2169.58 1566.82 2169.58 1582.44 2083.88 1715.01 2083.88 1715.12 2083.35 1824.19 2083.35 1824.07 2083.88 1952.16 2083.88 1936.54 2169.58 1805.71 2169.58 1726.75 2538.18"/><path class="f" d="m2482.7,2164.46l-26.3,141.12h57.73c71.68,0,106.2-93.31,59.01-128.93,0,0-17.96-16.68-90.44-12.19m-76.61,374.6h-109.07l98.28-454.83h.93v-.35c53.27,0,118.79-4.44,170.5-.35,89.89,7.11,139.96,56.57,139.96,134.46,0,108.55-97.32,168.38-195.59,168.38-8.12.38-16.51.52-25.15.39-5.26-.08-10.22-.22-14.98-.39h-31.89l-33,152.69Z"/><polygon class="f" points="2110.3 2537.3 1999.93 2537.96 2080.19 2168.7 1950.36 2168.7 1965.99 2083.01 2098.56 2083.01 2098.67 2082.47 2207.73 2082.47 2207.62 2083.01 2335.71 2083.01 2320.09 2168.7 2189.26 2168.7 2110.3 2537.3"/><rect class="d" x="0" width="2922.67" height="2922.67"/></g></svg>